# xmcd
#
# Track frame offsets:
#	150
#	17768
#	31808
#	55615
#	69908
#	78855
#	95229
#	113978
#	128189
#	147066
#	163212
#	176555
#	192302
#
# Disc length: 2768 seconds
# Revision: 0
# Processed by: cddbd v1.5.2PL0 Copyright (c) Steve Scherf et al.
# Submitted via: dBpowerAMP V12.0
#
DISCID=aa0ace0d
DTITLE=Blue Highway - Some Day (The Fifteenth Anniversary Collection
DYEAR=2009
DGENRE=Bluegrass
TTITLE0=Cold And Lowdown Lonesome Blues
TTITLE1=Through The Window Of A Train
TTITLE2=Bleeding For A Little Peace Of Mind
TTITLE3=Monrobro
TTITLE4=Some Day
TTITLE5=Still Climbing Mountains
TTITLE6=The Seventh Angel
TTITLE7=Elzic's Farewell
TTITLE8=Sycamore Hollow
TTITLE9=Seven Sundays In A Row
TTITLE10=Wild Urge To Ramble
TTITLE11=Marbletown
TTITLE12=Wondrous Love
EXTD=
EXTT0=
EXTT1=
EXTT2=
EXTT3=
EXTT4=
EXTT5=
EXTT6=
EXTT7=
EXTT8=
EXTT9=
EXTT10=
EXTT11=
EXTT12=
PLAYORDER=
